<svg xmlns="http://www.w3.org/2000/svg" width="100" height="100" viewBox="0 0 100 100" fill="none"><metadata><rdf:RDF xmlns:rdf="http://www.w3.org/1999/02/22-rdf-syntax-ns#" xmlns:dc="http://purl.org/dc/elements/1.1/"><rdf:Description><dc:creator>RealFaviconGenerator</dc:creator><dc:source>https://realfavicongenerator.net</dc:source></rdf:Description></rdf:RDF></metadata><rect width="100" height="100" rx="32" fill="url(#paint0_linear_18_134)"></rect><path d="M39.6529 23.4217C40.2624 22.5351 40.5672 22.0918 40.962 21.7715C41.3116 21.4878 41.7112 21.2755 42.1391 21.1461C42.6222 21 41.9408 21 43 21H67.8661C70.8923 21 72.4053 21 73.3084 21.6521C74.0967 22.2214 74.6191 23.0998 74.751 24.078C74.902 25.1986 74.2069 26.5742 72.8167 29.3253L66.4209 41.9825C65.8547 43.103 65.5716 43.6632 65.1559 44.0721C64.7882 44.4337 64.3474 44.7082 63.8647 44.8764C63.3189 45.0665 62.7027 45.0665 61.4703 45.0665H35.5087C32.0351 45.0665 30.2983 45.0665 29.3596 44.3282C28.5423 43.6853 28.045 42.705 28.0018 41.6508C27.9521 40.4402 28.9516 38.9864 30.9506 36.0789L39.6529 23.4217Z" fill="url(#paint1_linear_18_134)"></path><path d="M25 49.0094C25 45.7242 25 44.0815 25.3268 42.5162C25.6166 41.1276 26.0957 39.7877 26.75 38.5356C27.4876 37.1241 28.5234 35.8695 30.5952 33.3603L36.0703 26.7291C39.1024 23.0566 40.6185 21.2204 41.9411 21.0335C43.0865 20.8717 44.2358 21.3022 45.0086 22.1825C45.9009 23.199 45.9009 25.603 45.9009 30.4112V78.9791L38.9476 78.986C34.0659 78.9909 31.6251 78.9934 29.7604 78.0225C28.1201 77.1685 26.7863 75.8047 25.9504 74.1267C25 72.2191 25 69.7208 25 64.7244V49.0094Z" fill="url(#paint2_linear_18_134)"></path><path opacity="0.9" d="M25 49.6674C25 42.967 25 39.6168 26.2796 38.1083C27.3892 36.8002 29.0491 36.1232 30.7336 36.2918C32.6762 36.4861 34.9273 38.9182 39.4296 43.7824L49.7479 54.9301C56.7724 62.5192 60.2847 66.3138 60.4737 69.5554C60.6379 72.3697 59.4915 75.0976 57.3825 76.9112C54.9532 79.0001 49.8463 79.0001 39.6325 79.0001H38.934C34.0566 79.0001 31.6179 79.0001 29.755 78.0286C28.1164 77.174 26.7841 75.8104 25.9492 74.1332C25 72.2265 25 69.7305 25 64.7384V49.6674Z" fill="url(#paint3_linear_18_134)"></path><defs>
<linearGradient id="paint0_linear_18_134" x1="50" y1="0" x2="50" y2="100" gradientUnits="userSpaceOnUse">
<stop stop-color="#EFF8DB"></stop>
<stop offset="1" stop-color="#DBF3B1"></stop>
</linearGradient>
<linearGradient id="paint1_linear_18_134" x1="85.7324" y1="21.4457" x2="27.4917" y2="42.8376" gradientUnits="userSpaceOnUse">
<stop stop-color="#1E5238"></stop>
<stop offset="1" stop-color="#0E2F24"></stop>
</linearGradient>
<linearGradient id="paint2_linear_18_134" x1="35.4505" y1="14.8226" x2="35.4505" y2="78.1086" gradientUnits="userSpaceOnUse">
<stop stop-color="#2E6B3E"></stop>
<stop offset="1" stop-color="#215437"></stop>
</linearGradient>
<linearGradient id="paint3_linear_18_134" x1="25" y1="37.5076" x2="56.9774" y2="78.1837" gradientUnits="userSpaceOnUse">
<stop stop-color="#B0F38B"></stop>
<stop offset="1" stop-color="#72B24D"></stop>
</linearGradient>
</defs><style>@media (prefers-color-scheme: light) { :root { filter: none; } }
@media (prefers-color-scheme: dark) { :root { filter: none; } }
</style></svg>